<svg
  xmlns="http://www.w3.org/2000/svg"
  viewBox="-4 -4 248 248"
  width="240"
  height="240"
  role="img"
  aria-label="Usage Bar logo"
>
  <defs>
    <linearGradient id="g-claude" x1="0" y1="0" x2="1" y2="0">
      <stop offset="0%"   stop-color="hsl(142 47% 32%)" />
      <stop offset="100%" stop-color="hsl(142 47% 48%)" />
    </linearGradient>
    <linearGradient id="g-zai" x1="0" y1="0" x2="1" y2="0">
      <stop offset="0%"   stop-color="hsl(142 47% 36%)" />
      <stop offset="62%"  stop-color="hsl(80 60% 44%)" />
      <stop offset="100%" stop-color="hsl(38 75% 52%)" />
    </linearGradient>
    <linearGradient id="g-amp" x1="0" y1="0" x2="1" y2="0">
      <stop offset="0%"   stop-color="hsl(142 47% 36%)" />
      <stop offset="55%"  stop-color="hsl(38 75% 50%)" />
      <stop offset="100%" stop-color="hsl(0 55% 52%)" />
    </linearGradient>

    <filter id="bar-glow" x="-10%" y="-80%" width="120%" height="360%">
      <feGaussianBlur stdDeviation="3" result="blur" />
      <feMerge>
        <feMergeNode in="blur" />
        <feMergeNode in="SourceGraphic" />
      </feMerge>
    </filter>

    <clipPath id="clip-claude">
      <rect x="44" y="82"  width="152" height="20" rx="10" />
    </clipPath>
    <clipPath id="clip-zai">
      <rect x="44" y="110" width="152" height="20" rx="10" />
    </clipPath>
    <clipPath id="clip-amp">
      <rect x="44" y="138" width="152" height="20" rx="10" />
    </clipPath>
  </defs>

  <!-- Background squircle -->
  <rect width="240" height="240" rx="52" fill="hsl(0 0% 5%)" />
  <rect width="240" height="240" rx="52" fill="none" stroke="hsl(0 0% 12%)" stroke-width="1.5" />

  <!-- Service dots -->
  <circle cx="30" cy="92"  r="4" fill="hsl(142 47% 42%)" opacity="0.9" />
  <circle cx="30" cy="120" r="4" fill="hsl(38 75% 52%)"  opacity="0.9" />
  <circle cx="30" cy="148" r="4" fill="hsl(0 55% 52%)"   opacity="0.9" />

  <!-- Bar tracks -->
  <rect x="44" y="82"  width="152" height="20" rx="10" fill="hsl(0 0% 10%)" />
  <rect x="44" y="110" width="152" height="20" rx="10" fill="hsl(0 0% 10%)" />
  <rect x="44" y="138" width="152" height="20" rx="10" fill="hsl(0 0% 10%)" />

  <!-- Bar fills -->
  <!-- Claude: 62% -->
  <rect x="44" y="82"  width="94"  height="20" rx="10" fill="url(#g-claude)" clip-path="url(#clip-claude)" filter="url(#bar-glow)" />
  <!-- Z.ai: 83% -->
  <rect x="44" y="110" width="126" height="20" rx="10" fill="url(#g-zai)"    clip-path="url(#clip-zai)"    filter="url(#bar-glow)" />
  <!-- Amp: 91% -->
  <rect x="44" y="138" width="138" height="20" rx="10" fill="url(#g-amp)"    clip-path="url(#clip-amp)"    filter="url(#bar-glow)" />

  <!-- Live pulse dot -->
  <circle cx="200" cy="48" r="6"   fill="hsl(142 47% 42%)" opacity="0.25" />
  <circle cx="200" cy="48" r="3.5" fill="hsl(142 47% 48%)">
    <animate attributeName="opacity" values="1;0.3;1" dur="2.4s" repeatCount="indefinite" />
  </circle>

  <!-- UB monogram -->
  <text
    x="198" y="196"
    font-family="'Satoshi', system-ui, sans-serif"
    font-size="13"
    font-weight="700"
    fill="hsl(0 0% 28%)"
    text-anchor="middle"
    letter-spacing="-0.02em"
  >UB</text>
</svg>
